<?xml version="1.0" encoding="UTF-8"?>
<!DOCTYPE svg PUBLIC "-//W3C//DTD SVG 1.1//EN" "http://www.w3.org/Graphics/SVG/1.1/DTD/svg11.dtd">
<!-- Creator: CorelDRAW -->
<svg xmlns="http://www.w3.org/2000/svg" xml:space="preserve" width="114.168mm" height="159.019mm" style="shape-rendering:geometricPrecision; text-rendering:geometricPrecision; image-rendering:optimizeQuality; fill-rule:evenodd; clip-rule:evenodd"
viewBox="0 0 114.168 159.019"
 xmlns:xlink="http://www.w3.org/1999/xlink">
 <defs>
  <style type="text/css">
   <![CDATA[
    .str0 {stroke:#FFF00C;stroke-width:2.9104}
    .fil0 {fill:#0075CF}
    .fil1 {fill:#FFF00C}
   ]]>
  </style>
 </defs>
 <g id="Layer_x0020_1">
  <metadata id="CorelCorpID_0Corel-Layer"/>
  <g id="_93680424">
   <path id="_93680232" class="fil0 str0" d="M57.1499 157.427c0,0 -33.6021,-15.0812 -44.8469,-19.976 -11.2448,-6.21769 -10.8479,-17.3302 -10.8479,-17.3302l0 -118.666 111.257 0 0 118.665c0,0 0.3969,11.1125 -10.8479,17.3302 -11.2448,4.8948 -44.7146,19.9761 -44.7146,19.9761z"/>
   <path id="_93683904" class="fil1" d="M57.1499 11.0523c-4.8286,5.3517 -4.8948,12.0544 -4.8948,13.2892 0,7.09959 0.925999,19.7115 0.925999,33.514 0,21.6079 -10.3627,35.9832 -10.3627,35.9832 0,0 -0.1764,0.353 -2.2931,0.353 -2.1167,0 -6.70269,-1.7198 -6.70269,-6.79079 0,-5.0715 5.6002,-6.48229 6.65849,-6.48229 1.0583,0 1.5875,0.1762 1.5875,0.1762 0,0 -1.0583,-9.26049 -3.4396,-30.1626 -4.6302,-22.3573 -21.4312,-30.1625 -21.4312,-30.1625l0 96.7052 22.4015 0c0,0 1.6317,13.626 13.5819,22.3134 0,0 3.7923,3.2628 3.9688,4.3212 0.1765,-1.0583 3.9688,-4.3212 3.9688,-4.3212 11.95,-8.68709 13.5817,-22.3134 13.5817,-22.3134l22.4015 0 0 -96.7051c0,0 -16.801,7.80519 -21.4312,30.1625 -2.3812,20.9021 -3.4396,30.1625 -3.4396,30.1625 0,0 0.5292,-0.1762 1.5875,-0.1762 1.0583,0 6.65849,1.411 6.65849,6.48229 0,5.0713 -4.586,6.79109 -6.70269,6.79109 -2.1167,0 -2.2931,-0.353 -2.2931,-0.353 0,0 -10.3627,-14.3756 -10.3627,-35.9833 0,-13.8025 0.925999,-26.4144 0.925999,-33.514 0,-1.2348 -0.0660999,-7.93749 -4.8948,-13.2892l0 -0.0002z"/>
   <path id="_93674928" class="fil0" d="M90.3109 35.0131c0,0 -6.08519,7.58449 -7.84909,16.4923 -0.970199,8.20209 -2.9104,24.1655 -2.9104,24.1655 0,0 5.82079,2.4694 7.14379,8.55479 1.1464,0 3.6158,0 3.6158,0l-9.99999e-005 -49.2126z"/>
   <path id="_93674136" class="fil0" d="M74.0832 100.982c1.411,0 10.7156,-1.3668 12.6119,-10.0542l3.6158 0 0 20.0202 -14.8167 0c0,0 0,-5.4681 -1.411,-9.96599z"/>
   <path id="_93675288" class="fil0" d="M68.5711 110.86l-8.06969 0c0,0 0.2604,-7.13569 7.01149,-8.20209 0.572999,1.8521 1.0582,4.1011 1.0582,8.20209z"/>
   <path id="_93684168" class="fil0" d="M60.5895 117.475l6.87909 0c0,0 -0.749799,7.98139 -6.87919,13.67 9.99999e-005,-3.6158 9.99999e-005,-13.67 9.99999e-005,-13.67z"/>
   <path id="_93673464" class="fil0" d="M23.989 35.013c0,0 6.08519,7.58449 7.84909,16.4923 0.970199,8.20209 2.9104,24.1656 2.9104,24.1656 0,0 -5.82079,2.4691 -7.14379,8.55449 -1.1464,0 -3.6158,0 -3.6158,0l9.99999e-005 -49.2124z"/>
   <path id="_93681816" class="fil0" d="M40.2166 100.982c-1.411,0 -10.7156,-1.3668 -12.6119,-10.0542l-3.6157 0 0 20.02 14.8166 0c0,0 0,-5.4679 1.411,-9.96579z"/>
   <path id="_93681864" class="fil0" d="M45.7287 110.86l8.06979 0c0,0 -0.2604,-7.13599 -7.01149,-8.20209 -0.572999,1.8521 -1.0583,4.1011 -1.0583,8.20209z"/>
   <path id="_93685656" class="fil0" d="M53.7104 117.475l-6.87919 0c0,0 0.749799,7.98139 6.87919,13.67 0,-3.6158 0,-13.67 0,-13.67z"/>
   <path id="_93683088" class="fil0" d="M57.1499 78.052c0,0 -2.9543,10.936 -7.67289,18.0798 1.7637,1.1464 7.67289,5.1594 7.67289,5.1594 0,0 5.90919,-4.0129 7.67289,-5.1594 -4.7186,-7.14379 -7.67289,-18.0798 -7.67289,-18.0798z"/>
  </g>
 </g>
</svg>
